<?xml version="1.0" standalone="no"?>
<!DOCTYPE svg PUBLIC "-//W3C//DTD SVG 20010904//EN"
 "http://www.w3.org/TR/2001/REC-SVG-20010904/DTD/svg10.dtd">
<svg version="1.0" xmlns="http://www.w3.org/2000/svg"
 width="1232.000000pt" height="578.000000pt" viewBox="0 0 1232.000000 578.000000"
 preserveAspectRatio="xMidYMid meet">

<g transform="translate(0.000000,578.000000) scale(0.100000,-0.100000)"
fill="#000000" stroke="none">
<path d="M5055 5751 c-22 -10 -54 -34 -72 -52 -63 -67 -63 -65 -56 -505 3
-220 0 -637 -6 -929 l-12 -530 -28 -60 c-61 -130 -351 -539 -548 -770 -849
-1002 -1785 -1586 -2890 -1805 -328 -64 -589 -89 -1018 -96 -352 -5 -365 -8
-401 -67 -18 -30 -19 -54 -19 -419 0 -375 1 -387 21 -415 11 -15 36 -36 55
-46 32 -18 65 -18 599 -13 555 5 716 11 1095 41 833 67 1579 225 2205 470 237
92 586 253 601 277 8 12 23 667 16 674 -5 6 -120 -41 -677 -273 -928 -388
-1482 -564 -1686 -536 -58 8 -64 19 -14 27 59 9 234 68 356 121 354 150 888
471 1321 793 86 64 341 281 590 501 l438 388 3 -1259 2 -1259 193 6 c105 3
211 8 235 11 l42 5 0 1245 0 1245 23 -12 c12 -6 159 -150 327 -319 168 -170
337 -336 375 -371 173 -154 362 -292 565 -411 109 -65 162 -114 187 -178 17
-42 18 -87 15 -626 l-3 -581 158 -6 c87 -4 213 -7 280 -7 l123 0 2 453 3 453
225 -83 c1208 -447 2172 -680 3140 -758 329 -26 578 -35 1009 -35 l413 0 33
33 c45 45 47 70 43 502 -3 392 -3 390 -61 425 -30 18 -52 20 -297 20 -971 1
-1446 95 -2069 410 -301 152 -790 457 -991 618 -349 280 -791 721 -1065 1061
-177 222 -317 449 -355 576 -12 43 -28 800 -30 1515 -2 363 -3 388 -22 433
-24 56 -82 109 -137 125 -28 9 -327 12 -1117 12 -1030 0 -1081 -1 -1119 -19z
m1780 -523 c56 -44 55 -36 55 -688 0 -652 1 -644 -55 -688 l-28 -22 -657 0
-657 0 -28 22 c-56 44 -55 36 -55 688 0 652 -1 644 55 688 l28 22 657 0 657 0
28 -22z m55 -2583 c0 -333 -3 -605 -6 -605 -12 0 -294 191 -385 261 -307 236
-544 495 -757 831 -34 54 -62 100 -62 103 0 2 215 6 478 8 262 1 534 3 605 5
l127 2 0 -605z m609 -123 c97 -173 289 -380 531 -574 415 -331 725 -545 1106
-761 160 -90 878 -471 931 -493 18 -8 37 -23 44 -35 11 -21 10 -21 -43 -14
-394 51 -1287 359 -2063 710 -169 76 -503 244 -538 270 -17 13 -19 39 -23 387
-2 205 -6 427 -8 493 -5 136 -5 136 63 17z"/>
</g>
</svg>
